<svg xmlns="http://www.w3.org/2000/svg" xml:space="preserve" width="256" height="256" viewBox="0 0 256 256"><g style="stroke:none;stroke-width:0;stroke-dasharray:none;stroke-linecap:butt;stroke-linejoin:miter;stroke-miterlimit:10;fill:none;fill-rule:nonzero;opacity:1"><path d="M87.803 77.194 68.212 57.602c9.5-14.422 7.912-34.054-4.766-46.732h-.001c-14.495-14.493-38.08-14.494-52.574 0-14.494 14.495-14.494 38.079 0 52.575 7.248 7.247 16.767 10.87 26.287 10.87 7.134 0 14.267-2.035 20.445-6.104l19.591 19.591C78.659 89.267 80.579 90 82.498 90s3.84-.733 5.305-2.197a7.503 7.503 0 0 0 0-10.609zM21.48 52.837c-8.645-8.646-8.645-22.713 0-31.358 4.323-4.322 10-6.483 15.679-6.483 5.678 0 11.356 2.161 15.678 6.483 8.644 8.644 8.645 22.707.005 31.352l-.005.005a.018.018 0 0 0-.004.005c-8.649 8.64-22.71 8.639-31.353-.004z" style="stroke:none;stroke-width:1;stroke-dasharray:none;stroke-linecap:butt;stroke-linejoin:miter;stroke-miterlimit:10;fill:#fff;fill-rule:nonzero;opacity:1" transform="matrix(2.81 0 0 2.81 1.407 1.407)"/></g></svg>
